<?xml version="1.0" encoding="utf-8"?>
<svg xmlns="http://www.w3.org/2000/svg" xmlns:xlink="http://www.w3.org/1999/xlink" viewBox="0 0 161.58 38.83"><defs><style>.cls-1{clip-path:url(#clip-path);}.cls-2{fill:none;}.cls-3{isolation:isolate;}.cls-11,.cls-4{fill:#fff;}.cls-5{clip-path:url(#clip-path-2);}.cls-6{clip-path:url(#clip-path-3);}.cls-11,.cls-7,.cls-8{fill-rule:evenodd;}.cls-8{fill:#12146f;}.cls-9{mask:url(#mask);}.cls-10{clip-path:url(#clip-path-4);}.cls-12{mask:url(#mask-2);}.cls-13{clip-path:url(#clip-path-5);}.cls-14{fill:#12156f;}</style><clipPath id="clip-path"><rect class="cls-2" x="7.17" y="5.97" width="23.9" height="26.29"/></clipPath><clipPath id="clip-path-2"><rect class="cls-2" x="12.29" y="10.71" width="10.24" height="11.64"/></clipPath><clipPath id="clip-path-3"><rect class="cls-2" x="12.21" y="10.26" width="10.32" height="12.09"/></clipPath><mask id="mask" x="5.99" y="5.32" width="25.08" height="26.94" maskUnits="userSpaceOnUse"><g class="cls-1"><rect x="5.99" y="5.32" width="25.08" height="26.94"/><g class="cls-3"><rect class="cls-4" x="7.17" y="5.97" width="23.9" height="26.29"/></g></g></mask><clipPath id="clip-path-4"><rect class="cls-2" x="7.17" y="5.97" width="23.9" height="26.29"/></clipPath><mask id="mask-2" x="7.17" y="5.97" width="23.9" height="26.29" maskUnits="userSpaceOnUse"><g class="cls-5"><rect x="12.21" y="10.26" width="10.32" height="12.09"/><g class="cls-3"><g class="cls-6"><rect class="cls-4" x="7.17" y="5.97" width="23.9" height="26.29"/></g></g></g></mask><clipPath id="clip-path-5"><rect class="cls-2" x="12.29" y="10.71" width="10.24" height="11.64"/></clipPath></defs><g id="Layer_2" data-name="Layer 2"><g id="Layer_1-2" data-name="Layer 1"><path class="cls-7" d="M7.17,0H31.66a7.17,7.17,0,0,1,7.17,7.17V31.66a7.17,7.17,0,0,1-7.17,7.17H7.17A7.17,7.17,0,0,1,0,31.66V7.17A7.17,7.17,0,0,1,7.17,0"/><path class="cls-8" d="M7.17,0H31.66a7.17,7.17,0,0,1,7.17,7.17V31.66a7.17,7.17,0,0,1-7.17,7.17H7.17A7.17,7.17,0,0,1,0,31.66V7.17A7.17,7.17,0,0,1,7.17,0"/><g class="cls-9"><g class="cls-10"><path class="cls-11" d="M27.08,27.56c0-.17,0-.25-.06-.32-.37-1.55-.76-3.1-1.11-4.65a1.17,1.17,0,0,1,.11-.76A9,9,0,0,0,26.9,15,8.51,8.51,0,0,0,15.59,9.21a8.76,8.76,0,0,0-5.33,9.7,8.51,8.51,0,0,0,11.28,6.66,1.19,1.19,0,0,1,1,0c1.48.65,3,1.28,4.56,2m4,4.7L28.14,31c-2-.85-4-1.7-6-2.54a1.09,1.09,0,0,0-.69,0,11.57,11.57,0,0,1-14-8.26,11.34,11.34,0,0,1,8.73-13.9,11,11,0,0,1,11.51,4.15c2.89,3.67,3.19,7.74,1.28,12a1.44,1.44,0,0,0-.08.87c.66,2.8,1.34,5.6,2,8.39,0,.17.07.34.12.6"/></g></g><g class="cls-12"><g class="cls-13"><path class="cls-11" d="M22.53,12.29a7.56,7.56,0,0,0-6.35,3,8.69,8.69,0,0,0-1.67,7.08c-1-.39-2.16-2.82-2.22-4.74a6.68,6.68,0,0,1,3.85-6.39,5.81,5.81,0,0,1,6.39,1.07"/></g></g><path class="cls-14" d="M59.47,34.05a13.65,13.65,0,0,0,5-.85,10.28,10.28,0,0,0,3.64-2.36,9.9,9.9,0,0,0,2.19-3.57,13.17,13.17,0,0,0,.74-4.49V5.94H65V22.55a6.68,6.68,0,0,1-.41,2.36,5.87,5.87,0,0,1-1.15,1.88A5.31,5.31,0,0,1,61.69,28a5.37,5.37,0,0,1-2.22.44A5.51,5.51,0,0,1,57.24,28a5.19,5.19,0,0,1-1.77-1.24,5.87,5.87,0,0,1-1.15-1.88,6.68,6.68,0,0,1-.41-2.36V5.94H47.85V22.78a13.17,13.17,0,0,0,.74,4.49,9.79,9.79,0,0,0,2.2,3.57,10.15,10.15,0,0,0,3.63,2.36,13.77,13.77,0,0,0,5,.85"/><path class="cls-14" d="M83.35,33.72V19.53h4.3V14.88h-4.3v-3a3.21,3.21,0,0,1,.7-2.46,3.12,3.12,0,0,1,2.09-.6,4.61,4.61,0,0,1,1,.09,7,7,0,0,1,.93.29L88.3,4.3A11.27,11.27,0,0,0,86.64,4C86.07,4,85.49,4,84.9,4a10.07,10.07,0,0,0-3.81.6A5.12,5.12,0,0,0,78.86,6.2a6.08,6.08,0,0,0-1,2.42,15.27,15.27,0,0,0-.27,2.93v3.33H73.71v4.65h3.83V33.72Z"/><path class="cls-14" d="M99.74,14.54a11.89,11.89,0,0,1,4.08.69,9.58,9.58,0,0,1,3.33,2,9.18,9.18,0,0,1,2.22,3.08,9.46,9.46,0,0,1,.82,4,9.54,9.54,0,0,1-.82,4,9.18,9.18,0,0,1-2.22,3.08,9.74,9.74,0,0,1-3.33,2,12.41,12.41,0,0,1-8.16,0,9.74,9.74,0,0,1-3.33-2,9.18,9.18,0,0,1-2.22-3.08,9.69,9.69,0,0,1-.81-4,9.61,9.61,0,0,1,.81-4,9.18,9.18,0,0,1,2.22-3.08,9.58,9.58,0,0,1,3.33-2,12,12,0,0,1,4.08-.69m.17,5a4.45,4.45,0,0,0-3.43,1.32,4.94,4.94,0,0,0-1.21,3.47,4.92,4.92,0,0,0,1.21,3.47,5.08,5.08,0,0,0,6.85,0,4.93,4.93,0,0,0,1.22-3.47,5,5,0,0,0-1.22-3.47,4.42,4.42,0,0,0-3.42-1.32"/><path class="cls-14" d="M118.58,33.72V24.4a14.25,14.25,0,0,1,.11-1.77,4.58,4.58,0,0,1,.48-1.53,2.76,2.76,0,0,1,1-1.07,3.53,3.53,0,0,1,1.8-.41,2.46,2.46,0,0,1,2.58,1.66,5.12,5.12,0,0,1,.35,1.6c0,.57.06,1.13.06,1.67v9.17h5.74V23.4a21.38,21.38,0,0,0-.27-3.51,7.51,7.51,0,0,0-1-2.81,5,5,0,0,0-2.08-1.87,7.86,7.86,0,0,0-3.52-.67,6.44,6.44,0,0,0-1.91.27,6.83,6.83,0,0,0-1.57.69,5.44,5.44,0,0,0-1.19,1,4.46,4.46,0,0,0-.76,1.08h-.08V15h-5.51V33.72Z"/><path class="cls-14" d="M137.38,12.22a3.31,3.31,0,0,0,3.31-3.31,3.15,3.15,0,0,0-1-2.33,3.32,3.32,0,0,0-4.69,0,3.15,3.15,0,0,0-1,2.33,3.16,3.16,0,0,0,1,2.34,3.19,3.19,0,0,0,2.35,1"/><rect class="cls-14" x="134.72" y="14.87" width="5.97" height="18.85"/><path class="cls-14" d="M153.07,14.54a11.67,11.67,0,0,1,4.16.63A6.06,6.06,0,0,1,159.84,17a7.25,7.25,0,0,1,1.36,3,19.3,19.3,0,0,1,.38,4.11v9.45h-5.29V31.26h-.07l-.12.17a5.37,5.37,0,0,1-2.43,2,8.89,8.89,0,0,1-3.36.65,8.7,8.7,0,0,1-2.51-.36,6.5,6.5,0,0,1-2.13-1.09,5.44,5.44,0,0,1-1.46-1.8,5.63,5.63,0,0,1-.53-2.49,5.79,5.79,0,0,1,.59-2.72,5.26,5.26,0,0,1,1.61-1.83,8,8,0,0,1,2.32-1.13,16,16,0,0,1,2.7-.59,24.2,24.2,0,0,1,2.8-.23c.94,0,1.8,0,2.59,0a3,3,0,0,0-1.09-2.43,4,4,0,0,0-2.59-.9A5.73,5.73,0,0,0,150,19a7.22,7.22,0,0,0-2.09,1.63l-3.06-3.14.2-.18a10.57,10.57,0,0,1,3.55-2.06,13.67,13.67,0,0,1,4.45-.74m3.21,10.58h-1.61q-.63,0-1.53.06a8.2,8.2,0,0,0-1.93.32,4.35,4.35,0,0,0-1.58.79,1.79,1.79,0,0,0-.65,1.47,1.59,1.59,0,0,0,.91,1.5,3.89,3.89,0,0,0,1.89.49,5.88,5.88,0,0,0,1.68-.23,5.24,5.24,0,0,0,1.44-.63,3.17,3.17,0,0,0,1-1.06,2.93,2.93,0,0,0,.38-1.5Z"/></g></g></svg>